<svg width="894" height="737" viewBox="0 0 894 737" fill="none" xmlns="http://www.w3.org/2000/svg">
                  <g id="undraw_investing_7u74 1">
                  <g id="plantleaves">
                  <path id="Vector" d="M749.228 455.204C751.488 456.026 753.909 456.311 756.298 456.038C758.687 455.765 760.981 454.94 762.997 453.63C765.013 452.319 766.698 450.558 767.918 448.485C769.137 446.412 769.859 444.084 770.025 441.685C770.192 439.286 769.799 436.881 768.877 434.66C767.956 432.438 766.531 430.461 764.715 428.884C762.899 427.308 760.742 426.174 758.413 425.573C756.085 424.972 753.648 424.921 751.296 425.422L751.685 433.415L747.903 426.565C744.192 428.309 741.325 431.455 739.932 435.312C739.437 436.662 739.137 438.077 739.039 439.512C738.8 442.88 739.666 446.234 741.504 449.065C743.343 451.897 746.055 454.052 749.228 455.204V455.204Z" fill="#48C50D"/>
                  <path id="Vector_2" d="M767.939 547.905C766.604 541.108 772.389 535.082 778.102 531.165C783.816 527.248 790.492 523.399 792.441 516.752C795.243 507.199 786.897 498.45 780.402 490.905C775.583 485.306 771.444 479.155 768.073 472.582C766.607 470 765.609 467.18 765.124 464.25C764.612 460.016 765.972 455.802 767.343 451.763C771.909 438.307 776.791 424.964 781.988 411.733" stroke="#3F3D56" stroke-miterlimit="10"/>
                  <path id="Vector_3" d="M749.868 453.146C752.128 453.968 754.548 454.253 756.938 453.98C759.327 453.707 761.62 452.882 763.637 451.572C765.653 450.261 767.337 448.5 768.557 446.427C769.777 444.354 770.498 442.027 770.665 439.628C770.831 437.228 770.439 434.823 769.517 432.602C768.596 430.38 767.171 428.403 765.355 426.827C763.539 425.25 761.382 424.116 759.053 423.516C756.724 422.915 754.288 422.863 751.936 423.364L752.324 431.357L748.543 424.507C744.832 426.251 741.965 429.397 740.572 433.254C740.077 434.605 739.776 436.019 739.678 437.454C739.44 440.822 740.305 444.176 742.144 447.008C743.983 449.839 746.694 451.994 749.868 453.146V453.146Z" stroke="#3F3D56" stroke-miterlimit="10"/>
                  <path id="Vector_4" d="M766.041 408.973C766.928 406.525 768.417 404.341 770.37 402.62C772.323 400.899 774.678 399.697 777.218 399.126L778.497 406.724L780.867 398.744C784.158 398.793 787.349 399.886 789.978 401.866C792.608 403.847 794.54 406.611 795.495 409.761C796.451 412.911 796.381 416.283 795.295 419.391C794.209 422.498 792.164 425.18 789.455 427.049C786.745 428.918 783.512 429.878 780.221 429.79C776.931 429.702 773.754 428.571 771.148 426.559C768.543 424.548 766.644 421.76 765.726 418.599C764.808 415.438 764.918 412.067 766.041 408.973H766.041Z" fill="#48C50D"/>
                  <path id="Vector_5" d="M766.894 406.229C767.781 403.782 769.27 401.597 771.223 399.876C773.176 398.155 775.531 396.953 778.071 396.382L779.349 403.98L781.72 396C785.011 396.049 788.202 397.142 790.831 399.123C793.46 401.103 795.392 403.868 796.348 407.017C797.303 410.167 797.233 413.539 796.148 416.647C795.062 419.754 793.017 422.436 790.307 424.305C787.598 426.175 784.365 427.135 781.074 427.047C777.784 426.958 774.606 425.827 772.001 423.815C769.395 421.804 767.497 419.016 766.579 415.855C765.661 412.694 765.771 409.323 766.894 406.229V406.229Z" stroke="#3F3D56" stroke-miterlimit="10"/>
                  <path id="Vector_6" d="M777.676 491.059C781.26 492.359 785.198 492.295 788.738 490.879C792.278 489.462 795.174 486.793 796.872 483.379C798.571 479.965 798.953 476.045 797.948 472.367C796.942 468.689 794.618 465.51 791.419 463.435L789.597 469.568L788.306 461.88C788.293 461.874 788.28 461.869 788.266 461.865C786.349 461.17 784.314 460.859 782.277 460.95C780.24 461.041 778.241 461.532 776.394 462.396C774.547 463.26 772.888 464.479 771.512 465.984C770.136 467.489 769.069 469.25 768.374 471.167C767.679 473.084 767.368 475.119 767.459 477.156C767.55 479.193 768.041 481.192 768.905 483.039C769.769 484.886 770.988 486.545 772.493 487.921C773.998 489.297 775.759 490.364 777.676 491.059V491.059Z" fill="#48C50D"/>
                  <path id="Vector_7" d="M778.415 488.28C781.999 489.58 785.937 489.516 789.477 488.1C793.017 486.683 795.912 484.014 797.611 480.6C799.309 477.186 799.692 473.266 798.686 469.588C797.681 465.91 795.357 462.731 792.158 460.656L790.336 466.789L789.045 459.101C789.032 459.095 789.019 459.09 789.005 459.086C785.134 457.681 780.863 457.872 777.132 459.617C773.402 461.361 770.517 464.516 769.113 468.388C767.708 472.259 767.9 476.53 769.644 480.26C771.388 483.991 774.543 486.875 778.415 488.28V488.28Z" stroke="#3F3D56" stroke-miterlimit="10"/>
                  <path id="Vector_8" d="M761.51 516.847C762.126 520.354 763.929 523.542 766.617 525.877C769.305 528.213 772.715 529.552 776.273 529.672C779.832 529.792 783.324 528.685 786.163 526.536C789.002 524.387 791.016 521.327 791.867 517.869C792.717 514.412 792.354 510.767 790.836 507.546C789.318 504.325 786.739 501.723 783.532 500.178C780.324 498.633 776.682 498.237 773.217 499.058C769.752 499.879 766.675 501.867 764.502 504.687L771.421 515.101L761.967 509.573C761.234 511.926 761.077 514.421 761.51 516.847V516.847Z" fill="#48C50D"/>
                  <path id="Vector_9" d="M762.149 514.789C762.765 518.296 764.569 521.485 767.257 523.82C769.945 526.155 773.354 527.495 776.913 527.614C780.472 527.734 783.963 526.627 786.802 524.478C789.641 522.329 791.655 519.269 792.506 515.812C793.357 512.354 792.993 508.709 791.475 505.488C789.958 502.267 787.379 499.666 784.171 498.12C780.963 496.575 777.321 496.18 773.857 497.001C770.392 497.822 767.315 499.809 765.141 502.629L772.06 513.043L762.607 507.516C761.874 509.869 761.717 512.363 762.149 514.789V514.789Z" stroke="#3F3D56" stroke-miterlimit="10"/>
                  </g>
                  <g id="Group 1">
                  <path id="Vector_10" d="M746.379 557.113C746.379 557.113 760.082 551.743 764.212 548.802C768.342 545.861 785.291 542.35 786.315 547.066C787.34 551.782 806.908 570.523 791.438 570.647C775.967 570.772 755.491 573.186 751.369 570.675C747.247 568.164 746.379 557.113 746.379 557.113Z" fill="#1A6B7D"/>
                  <path id="Vector_11" opacity="0.2" d="M791.714 569.006C776.243 569.131 755.767 571.544 751.645 569.033C748.506 567.121 747.255 560.26 746.837 557.095C746.547 557.107 746.379 557.113 746.379 557.113C746.379 557.113 747.247 568.164 751.369 570.675C755.491 573.186 775.967 570.772 791.438 570.647C795.903 570.611 797.446 569.023 797.361 566.669C796.741 568.091 795.038 568.979 791.714 569.006Z" fill="black"/>
                  </g>
                  <g id="holebar">
                  <g id="fistbar">
                  <path id="Vector_12" d="M216.149 413H179.851C173.306 413 168 418.306 168 424.851V559.149C168 565.694 173.306 571 179.851 571H216.149C222.694 571 228 565.694 228 559.149V424.851C228 418.306 222.694 413 216.149 413Z" fill="#00B0FF"/>
                  <path id="Vector_13" d="M216.149 413H179.851C173.306 413 168 418.306 168 424.851V559.149C168 565.694 173.306 571 179.851 571H216.149C222.694 571 228 565.694 228 559.149V424.851C228 418.306 222.694 413 216.149 413Z" stroke="#3F3D56" stroke-miterlimit="10"/>
                  </g>
                  <g id="secondbar">
                  <path id="Vector_14" d="M330.149 318H293.851C287.306 318 282 323.306 282 329.851V559.149C282 565.694 287.306 571 293.851 571H330.149C336.694 571 342 565.694 342 559.149V329.851C342 323.306 336.694 318 330.149 318Z" fill="#00B0FF"/>
                  <path id="Vector_15" d="M330.149 318H293.851C287.306 318 282 323.306 282 329.851V559.149C282 565.694 287.306 571 293.851 571H330.149C336.694 571 342 565.694 342 559.149V329.851C342 323.306 336.694 318 330.149 318Z" stroke="#3F3D56" stroke-miterlimit="10"/>
                  </g>
                  <g id="thirdbar">
                  <path id="Vector_16" d="M443.149 253H406.851C400.306 253 395 258.306 395 264.851V560.149C395 566.694 400.306 572 406.851 572H443.149C449.694 572 455 566.694 455 560.149V264.851C455 258.306 449.694 253 443.149 253Z" fill="#00B0FF"/>
                  <path id="Vector_17" d="M444.149 252H407.851C401.306 252 396 257.306 396 263.851V559.149C396 565.694 401.306 571 407.851 571H444.149C450.694 571 456 565.694 456 559.149V263.851C456 257.306 450.694 252 444.149 252Z" stroke="#3F3D56" stroke-miterlimit="10"/>
                  </g>
                  <g id="fourbar">
                  <path id="Vector_18" d="M558.149 189H521.851C515.306 189 510 194.306 510 200.851V559.149C510 565.694 515.306 571 521.851 571H558.149C564.694 571 570 565.694 570 559.149V200.851C570 194.306 564.694 189 558.149 189Z" fill="#00B0FF"/>
                  <path id="Vector_19" d="M558.149 189H521.851C515.306 189 510 194.306 510 200.851V559.149C510 565.694 515.306 571 521.851 571H558.149C564.694 571 570 565.694 570 559.149V200.851C570 194.306 564.694 189 558.149 189Z" stroke="#3F3D56" stroke-miterlimit="10"/>
                  </g>
                  <g id="fivthbar">
                  <path id="Vector_20" d="M672.149 80H635.851C629.306 80 624 85.3057 624 91.8505V560.149C624 566.694 629.306 572 635.851 572H672.149C678.694 572 684 566.694 684 560.149V91.8505C684 85.3057 678.694 80 672.149 80Z" fill="#00B0FF"/>
                  <path id="Vector_21" d="M672.149 79H635.851C629.306 79 624 84.3057 624 90.8505V559.149C624 565.694 629.306 571 635.851 571H672.149C678.694 571 684 565.694 684 559.149V90.8505C684 84.3057 678.694 79 672.149 79Z" stroke="#3D4556" stroke-miterlimit="10"/>
                  </g>
                  <path id="Vector_22" d="M861 571H0" stroke="#3F3D56" stroke-miterlimit="10"/>
                  </g>
                  <g id="trendbar">
                  <path id="Vector_23" d="M186 369L300 272.859L415 207.078L529 143.321L643 32" stroke="#3F3D56" stroke-miterlimit="10"/>
                  <g id="thirdcircle">
                  <path id="Vector_24" d="M425 211C431.075 211 436 206.075 436 200C436 193.925 431.075 189 425 189C418.925 189 414 193.925 414 200C414 206.075 418.925 211 425 211Z" fill="#EE790D"/>
                  <path id="Vector_25" d="M425 211C431.075 211 436 206.075 436 200C436 193.925 431.075 189 425 189C418.925 189 414 193.925 414 200C414 206.075 418.925 211 425 211Z" stroke="#3F3D56" stroke-miterlimit="10"/>
                  </g>
                  <g id="fourthcircle">
                  <path id="Vector_26" d="M529 153C535.075 153 540 148.075 540 142C540 135.925 535.075 131 529 131C522.925 131 518 135.925 518 142C518 148.075 522.925 153 529 153Z" fill="#EE790D"/>
                  <path id="Vector_27" d="M529 153C535.075 153 540 148.075 540 142C540 135.925 535.075 131 529 131C522.925 131 518 135.925 518 142C518 148.075 522.925 153 529 153Z" stroke="#3F3D56" stroke-miterlimit="10"/>
                  </g>
                  <g id="fivthcircle">
                  <path id="Vector_28" d="M643 43C649.075 43 654 38.0751 654 32C654 25.9249 649.075 21 643 21C636.925 21 632 25.9249 632 32C632 38.0751 636.925 43 643 43Z" fill="#EE790D"/>
                  <path id="Vector_29" d="M643 43C649.075 43 654 38.0751 654 32C654 25.9249 649.075 21 643 21C636.925 21 632 25.9249 632 32C632 38.0751 636.925 43 643 43Z" stroke="#3F3D56" stroke-miterlimit="10"/>
                  </g>
                  <g id="firstcircle">
                  <path id="Vector_30" d="M187 379C193.075 379 198 374.075 198 368C198 361.925 193.075 357 187 357C180.925 357 176 361.925 176 368C176 374.075 180.925 379 187 379Z" fill="#EE790D"/>
                  <path id="Vector_31" d="M187 379C193.075 379 198 374.075 198 368C198 361.925 193.075 357 187 357C180.925 357 176 361.925 176 368C176 374.075 180.925 379 187 379Z" stroke="#3F3D56" stroke-miterlimit="10"/>
                  </g>
                  <g id="secondcircle">
                  <path id="Vector_32" d="M301 281C307.075 281 312 276.075 312 270C312 263.925 307.075 259 301 259C294.925 259 290 263.925 290 270C290 276.075 294.925 281 301 281Z" fill="#EE790D"/>
                  <path id="Vector_33" d="M301 281C307.075 281 312 276.075 312 270C312 263.925 307.075 259 301 259C294.925 259 290 263.925 290 270C290 276.075 294.925 281 301 281Z" stroke="#3F3D56" stroke-miterlimit="10"/>
                  </g>
                  </g>
                  </g>
                  </svg>
                  